<svg width="80" height="80" viewBox="0 0 80 80" fill="none" xmlns="http://www.w3.org/2000/svg">
<path d="M0 14C0 6.26801 6.26801 0 14 0H66C73.732 0 80 6.26801 80 14V66C80 73.732 73.732 80 66 80H0V14Z" fill="#0B7ACD" fill-opacity="0.2"/>
<path d="M39.2623 20.0358C39.1191 19.8897 38.9471 19.7749 38.7572 19.6986C38.5673 19.6223 38.3637 19.5862 38.1592 19.5925L23.8738 19.93C22.8337 19.9506 21.8419 20.3726 21.1058 21.1077C20.3698 21.8428 19.9465 22.834 19.9246 23.8741L19.5922 38.1644C19.5876 38.3687 19.6246 38.5718 19.7008 38.7614C19.777 38.951 19.8908 39.1232 20.0354 39.2675L39.3933 58.6303C39.9549 59.1938 40.6221 59.6409 41.3569 59.946C42.0916 60.2511 42.8793 60.4081 43.6749 60.4081C44.4705 60.4081 45.2582 60.2511 45.9929 59.946C46.7277 59.6409 47.3949 59.1938 47.9565 58.6303L58.6303 47.9465C59.1938 47.385 59.6409 46.7177 59.946 45.983C60.2511 45.2482 60.4081 44.4605 60.4081 43.665C60.4081 42.8694 60.2511 42.0817 59.946 41.347C59.6409 40.6122 59.1938 39.945 58.6303 39.3834L39.2623 20.0358ZM36.5423 36.5425C35.7673 37.3171 34.78 37.8446 33.7052 38.0581C32.6304 38.2717 31.5165 38.1618 30.5042 37.7424C29.4919 37.3229 28.6266 36.6128 28.0179 35.7016C27.4092 34.7905 27.0843 33.7193 27.0843 32.6236C27.0843 31.5278 27.4092 30.4566 28.0179 29.5455C28.6266 28.6344 29.4919 27.9242 30.5042 27.5047C31.5165 27.0853 32.6304 26.9754 33.7052 27.189C34.78 27.4026 35.7673 27.93 36.5423 28.7047C37.0571 29.2192 37.4654 29.8302 37.744 30.5026C38.0227 31.175 38.1661 31.8957 38.1661 32.6236C38.1661 33.3514 38.0227 34.0721 37.744 34.7446C37.4654 35.417 37.0571 36.0279 36.5423 36.5425Z" fill="#0B7ACD"/>
</svg>
