<svg width="642" height="430" viewBox="0 0 642 430" fill="none" xmlns="http://www.w3.org/2000/svg">
<g clip-path="url(#clip0_719_3855)">
<path d="M511.438 190.294L513.344 175.021C514.021 169.594 516.827 164.658 521.145 161.299C525.462 157.939 530.938 156.433 536.367 157.11C541.795 157.787 546.733 160.593 550.092 164.909C553.452 169.226 554.959 174.7 554.282 180.128L552.376 195.4C552.284 196.129 551.907 196.791 551.327 197.242C550.748 197.693 550.013 197.896 549.284 197.806L513.844 193.385C513.116 193.294 512.453 192.917 512.002 192.337C511.551 191.757 511.348 191.022 511.438 190.294Z" fill="#2F2E41"/>
<path d="M528.414 194.85C536.766 194.85 543.537 188.08 543.537 179.73C543.537 171.379 536.766 164.609 528.414 164.609C520.061 164.609 513.29 171.379 513.29 179.73C513.29 188.08 520.061 194.85 528.414 194.85Z" fill="#FFB8B8"/>
<path d="M508.349 175.64C508.889 171.349 511.11 167.447 514.524 164.79C517.939 162.134 522.267 160.94 526.561 161.471L529.616 161.852C533.908 162.392 537.811 164.613 540.468 168.026C543.125 171.44 544.319 175.768 543.788 180.06L543.75 180.366L537.293 179.56L535.86 173.121L534.651 179.231L531.314 178.815L530.591 175.565L529.981 178.648L508.311 175.945L508.349 175.64Z" fill="#2F2E41"/>
<path d="M454.445 233.667C454.907 234.574 455.563 235.369 456.365 235.996C457.168 236.622 458.099 237.065 459.091 237.293C460.084 237.522 461.114 237.529 462.11 237.316C463.106 237.103 464.043 236.674 464.855 236.06L478.592 244.105L485.518 236.952L465.96 225.863C464.837 224.567 463.278 223.728 461.578 223.505C459.878 223.282 458.155 223.69 456.735 224.651C455.316 225.613 454.299 227.062 453.877 228.724C453.455 230.385 453.657 232.144 454.445 233.667Z" fill="#FFB8B8"/>
<path d="M499.465 248.123C489.333 248.123 471.503 243.588 470.516 243.334L470.204 243.255L473.01 229.05L500.243 234.428L515.038 213.598L532.024 211.872L531.55 212.496C531.329 212.786 509.433 241.603 506.026 246.437C505.166 247.657 502.71 248.123 499.465 248.123Z" fill="#3F3D56"/>
<path d="M502.181 301.436L501.776 301.242C501.69 301.201 493.081 297.015 488.622 288.842C484.185 280.708 504.958 246.204 506.411 243.81L506.432 232.853L513.905 212.681L523.436 207.296L515.253 226.384L502.181 301.436Z" fill="#3F3D56"/>
<path d="M492.634 419.208L483.526 419.207L479.192 384.083L492.635 384.084L492.634 419.208Z" fill="#FFB8B8"/>
<path d="M494.957 428.034L465.588 428.033V427.662C465.588 424.631 466.793 421.724 468.936 419.581C471.08 417.438 473.987 416.234 477.019 416.233H477.02L494.957 416.234L494.957 428.034Z" fill="#2F2E41"/>
<path d="M590.468 411.227L581.813 414.062L566.755 382.033L579.53 377.849L590.468 411.227Z" fill="#FFB8B8"/>
<path d="M595.425 418.893L567.516 428.035L567.4 427.682C566.456 424.801 566.696 421.664 568.065 418.96C569.435 416.256 571.823 414.207 574.704 413.263L574.704 413.262L591.75 407.679L595.425 418.893Z" fill="#2F2E41"/>
<path d="M572.833 405.484L546.868 362.146L524.949 315.844L505.225 356.744L497.389 409.717L469.91 410.098L470.018 409.669L512.07 242.616L545.004 247.535L543.505 269.27L544.398 270.539C551.837 281.106 559.53 292.031 555.118 303.808L567.625 340.937L595.311 402.76L572.833 405.484Z" fill="#2F2E41"/>
<path d="M513.574 278.821C508.802 278.821 503.357 273.374 506.182 264.073L505.999 263.94L512.784 233.972C506.863 225.506 514.669 218.519 515.401 217.895L519.127 211.189L535.568 200.765L543.886 269.867L543.763 269.985C537.755 275.732 517.578 278.821 513.574 278.821Z" fill="#0B7ACD"/>
<path d="M547.245 294.414C546.592 294.425 545.939 294.356 545.303 294.209C544.663 294.049 543.628 293.235 542.029 288.027C535.669 267.327 528.161 205.042 533.616 198.948L533.741 198.808L542.697 200.3C543.442 199.751 547.348 197.024 550.953 197.498C551.696 197.592 552.411 197.836 553.055 198.217C553.699 198.597 554.258 199.106 554.697 199.711L554.759 199.792L557.612 240.375L568.065 288.133L567.815 288.246C567.206 288.523 554.154 294.414 547.245 294.414Z" fill="#3F3D56"/>
<path d="M541.222 278.553C542.24 278.519 543.238 278.262 544.146 277.801C545.053 277.34 545.849 276.685 546.477 275.883C547.104 275.081 547.548 274.151 547.777 273.159C548.006 272.167 548.015 271.136 547.803 270.141L560.914 261.112L557.369 251.809L539.034 264.818C537.384 265.285 535.963 266.342 535.04 267.786C534.117 269.231 533.756 270.964 534.026 272.657C534.295 274.35 535.177 275.885 536.503 276.972C537.829 278.059 539.508 278.621 541.222 278.553Z" fill="#FFB8B8"/>
<path d="M556.588 268.346L544.909 259.783L561.325 237.403L548.727 215.177L554.364 199.064L554.728 199.758C554.897 200.082 571.721 232.123 574.656 237.258C577.709 242.6 557.648 267.059 556.792 268.097L556.588 268.346Z" fill="#3F3D56"/>
<path d="M293.896 369.076L283.956 364.892L277.138 315.077H186.34L178.949 364.689L170.057 369.134C169.631 369.346 169.29 369.696 169.089 370.127C168.887 370.558 168.837 371.044 168.946 371.507C169.055 371.97 169.318 372.382 169.691 372.677C170.064 372.973 170.526 373.133 171.001 373.133H293.076C293.564 373.133 294.036 372.965 294.414 372.656C294.791 372.347 295.05 371.918 295.146 371.44C295.243 370.962 295.171 370.466 294.943 370.035C294.715 369.604 294.345 369.265 293.896 369.076Z" fill="#E6E6E6"/>
<path d="M455.25 321.705H9.22402C6.88385 321.699 4.64132 320.766 2.98843 319.11C1.33553 317.454 0.407242 315.21 0.407227 312.87V249.988H464.067V312.87C464.066 315.21 463.138 317.454 461.485 319.11C459.832 320.766 457.59 321.699 455.25 321.705Z" fill="#CCCCCC"/>
<path d="M464.533 279.708H0V10.65C0.00326308 7.82636 1.12665 5.11934 3.12372 3.12277C5.12078 1.12621 7.82843 0.00316668 10.6527 0H453.88C456.704 0.00315942 459.412 1.12621 461.409 3.12276C463.406 5.11932 464.529 7.82634 464.533 10.65V279.708Z" fill="#3F3D56"/>
<path d="M436.788 260.179H27.7446C25.5673 260.177 23.4799 259.311 21.9403 257.772C20.4007 256.232 19.5347 254.145 19.5322 251.969V27.7383C19.5347 25.5614 20.4007 23.4743 21.9403 21.935C23.4798 20.3957 25.5673 19.5298 27.7446 19.5273H436.788C438.965 19.5298 441.053 20.3957 442.592 21.935C444.132 23.4743 444.998 25.5614 445 27.7383V251.969C444.998 254.145 444.132 256.232 442.592 257.772C441.053 259.311 438.965 260.177 436.788 260.179Z" fill="white"/>
<path d="M346.983 373.653H117.135C116.9 373.658 116.67 373.585 116.48 373.445C116.29 373.305 116.152 373.107 116.087 372.881C116.047 372.727 116.042 372.565 116.073 372.409C116.105 372.253 116.172 372.106 116.269 371.98C116.366 371.854 116.491 371.752 116.634 371.681C116.777 371.611 116.934 371.574 117.093 371.574H346.897C347.146 371.565 347.39 371.641 347.59 371.788C347.789 371.936 347.934 372.147 347.998 372.387C348.032 372.539 348.031 372.697 347.996 372.848C347.96 373 347.891 373.142 347.794 373.263C347.696 373.385 347.573 373.483 347.433 373.55C347.292 373.618 347.138 373.653 346.983 373.653Z" fill="#CCCCCC"/>
<path d="M432.421 55.7793H333.659V131.214H432.421V55.7793Z" fill="#F2F2F2"/>
<path d="M427.514 59.5273H338.567V127.466H427.514V59.5273Z" fill="white"/>
<path d="M384.602 109.921C384.614 109.921 384.626 109.921 384.638 109.92C390.659 109.605 396.334 107.009 400.508 102.661C404.683 98.3116 407.045 92.5362 407.112 86.5087C407.18 80.4812 404.949 74.6543 400.872 70.2129C396.796 65.7715 391.181 63.0491 385.168 62.5993C385.094 62.5935 385.019 62.6031 384.949 62.6275C384.878 62.6519 384.814 62.6906 384.759 62.7412C384.704 62.7909 384.66 62.8514 384.63 62.9189C384.6 62.9863 384.584 63.0593 384.584 63.1331L384.065 109.373C384.064 109.517 384.12 109.655 384.221 109.758C384.321 109.861 384.459 109.919 384.602 109.921Z" fill="#3F3D56"/>
<path d="M366.004 70.2452C366.188 70.2474 366.365 70.3227 366.494 70.4545L382.416 86.734C382.48 86.7991 382.531 86.8763 382.565 86.961C382.599 87.0458 382.615 87.1365 382.614 87.2278L382.366 109.354C382.365 109.449 382.345 109.543 382.306 109.629C382.268 109.716 382.211 109.794 382.141 109.858C382.071 109.922 381.988 109.972 381.897 110.003C381.807 110.035 381.711 110.047 381.616 110.04C377.189 109.709 372.942 108.15 369.352 105.538C365.763 102.927 362.973 99.3664 361.296 95.2568C359.619 91.1473 359.121 86.6516 359.859 82.2749C360.597 77.8983 362.542 73.8141 365.473 70.4813C365.537 70.4095 365.614 70.3515 365.701 70.3109C365.788 70.2703 365.882 70.248 365.978 70.2453C365.987 70.2451 365.995 70.2451 366.004 70.2452Z" fill="#E6E6E6"/>
<path d="M382.194 62.4102C382.372 62.4123 382.542 62.4819 382.67 62.6048C382.739 62.6704 382.794 62.7495 382.831 62.8371C382.867 62.9248 382.886 63.0191 382.884 63.1141L382.66 83.0777C382.659 83.2152 382.617 83.3491 382.539 83.4625C382.461 83.5759 382.352 83.6638 382.224 83.715C382.096 83.7662 381.957 83.7784 381.822 83.7501C381.687 83.7218 381.564 83.6542 381.468 83.5559L367.574 69.35C367.508 69.2825 367.457 69.2022 367.423 69.1141C367.389 69.026 367.373 68.9319 367.376 68.8375C367.38 68.7431 367.403 68.6505 367.443 68.5651C367.483 68.4798 367.541 68.4035 367.612 68.3411C371.653 64.785 376.775 62.6957 382.151 62.411C382.165 62.4103 382.18 62.4101 382.194 62.4102Z" fill="#0B7ACD"/>
<path d="M375.037 119.509C375.028 120.352 374.769 121.172 374.293 121.867C373.817 122.562 373.146 123.1 372.364 123.414C371.582 123.728 370.725 123.802 369.9 123.629C369.076 123.455 368.322 123.041 367.733 122.439C367.144 121.837 366.746 121.073 366.591 120.246C366.436 119.418 366.53 118.562 366.861 117.788C367.192 117.013 367.746 116.355 368.451 115.894C369.157 115.434 369.983 115.194 370.826 115.203C371.955 115.217 373.032 115.679 373.822 116.486C374.611 117.293 375.048 118.38 375.037 119.509Z" fill="#0B7ACD"/>
<path d="M387.206 119.646C387.197 120.488 386.938 121.309 386.462 122.004C385.986 122.699 385.315 123.237 384.533 123.551C383.751 123.864 382.894 123.939 382.069 123.765C381.245 123.592 380.49 123.178 379.901 122.576C379.312 121.973 378.915 121.21 378.76 120.382C378.605 119.554 378.699 118.699 379.03 117.925C379.361 117.15 379.915 116.491 380.62 116.031C381.326 115.571 382.152 115.331 382.995 115.34C384.124 115.354 385.201 115.815 385.991 116.622C386.78 117.43 387.217 118.517 387.206 119.646Z" fill="#3F3D56"/>
<path d="M399.375 119.782C399.366 120.624 399.107 121.444 398.631 122.14C398.155 122.835 397.484 123.373 396.702 123.686C395.92 124 395.062 124.075 394.238 123.901C393.414 123.728 392.659 123.314 392.07 122.711C391.481 122.109 391.084 121.346 390.929 120.518C390.774 119.69 390.868 118.835 391.199 118.06C391.53 117.286 392.084 116.627 392.789 116.167C393.495 115.707 394.321 115.466 395.164 115.476C396.293 115.49 397.37 115.951 398.16 116.758C398.949 117.565 399.386 118.653 399.375 119.782Z" fill="#E6E6E6"/>
<path d="M431.382 143.086H332.62V218.521H431.382V143.086Z" fill="#F2F2F2"/>
<path d="M426.474 146.834H337.527V214.772H426.474V146.834Z" fill="white"/>
<path d="M352.619 169.163C354.659 169.163 356.312 167.51 356.312 165.471C356.312 163.431 354.659 161.778 352.619 161.778C350.579 161.778 348.926 163.431 348.926 165.471C348.926 167.51 350.579 169.163 352.619 169.163Z" fill="#3F3D56"/>
<path d="M411.958 162.598C412.287 162.597 412.613 162.661 412.918 162.787C413.222 162.913 413.498 163.097 413.731 163.33C413.964 163.562 414.149 163.838 414.276 164.143C414.402 164.447 414.467 164.773 414.467 165.102C414.467 165.431 414.402 165.757 414.276 166.061C414.149 166.365 413.964 166.641 413.731 166.874C413.498 167.106 413.222 167.291 412.918 167.416C412.613 167.542 412.287 167.606 411.958 167.606H373.116C372.452 167.606 371.814 167.342 371.345 166.872C370.875 166.403 370.611 165.766 370.611 165.102C370.611 164.438 370.875 163.801 371.345 163.331C371.814 162.861 372.452 162.598 373.116 162.598H411.958ZM411.958 161.984H373.116C372.706 161.984 372.3 162.064 371.921 162.22C371.542 162.377 371.198 162.606 370.908 162.896C370.618 163.185 370.388 163.529 370.231 163.908C370.074 164.286 369.993 164.692 369.993 165.102C369.993 165.511 370.074 165.917 370.231 166.296C370.388 166.674 370.618 167.018 370.908 167.308C371.198 167.597 371.542 167.827 371.921 167.983C372.3 168.14 372.706 168.22 373.116 168.219H411.958C412.368 168.22 412.774 168.14 413.152 167.983C413.531 167.827 413.876 167.597 414.166 167.308C414.456 167.018 414.686 166.674 414.843 166.296C415 165.917 415.08 165.511 415.08 165.102C415.08 164.692 415 164.286 414.843 163.908C414.686 163.529 414.456 163.185 414.166 162.896C413.876 162.606 413.531 162.377 413.152 162.22C412.774 162.064 412.368 161.984 411.958 161.984Z" fill="#3F3D56"/>
<path d="M396.631 168.219H367.392C366.565 168.219 365.771 167.891 365.187 167.306C364.602 166.721 364.273 165.928 364.273 165.102C364.273 164.275 364.602 163.482 365.187 162.897C365.771 162.313 366.565 161.984 367.392 161.984H396.631C397.458 161.984 398.251 162.313 398.836 162.897C399.421 163.482 399.749 164.275 399.749 165.102C399.749 165.928 399.421 166.721 398.836 167.306C398.251 167.891 397.458 168.219 396.631 168.219Z" fill="#0B7ACD"/>
<path d="M352.619 184.496C354.659 184.496 356.312 182.843 356.312 180.804C356.312 178.764 354.659 177.111 352.619 177.111C350.579 177.111 348.926 178.764 348.926 180.804C348.926 182.843 350.579 184.496 352.619 184.496Z" fill="#3F3D56"/>
<path d="M411.958 177.93C412.287 177.929 412.614 177.994 412.918 178.119C413.222 178.245 413.499 178.429 413.732 178.662C413.965 178.894 414.15 179.17 414.276 179.475C414.402 179.779 414.467 180.105 414.467 180.434C414.467 180.763 414.402 181.089 414.276 181.393C414.15 181.697 413.965 181.973 413.732 182.206C413.499 182.438 413.222 182.623 412.918 182.748C412.614 182.874 412.287 182.938 411.958 182.938H373.116C372.452 182.938 371.815 182.674 371.345 182.204C370.875 181.735 370.611 181.098 370.611 180.434C370.611 179.77 370.875 179.133 371.345 178.663C371.815 178.194 372.452 177.93 373.116 177.93H411.958ZM411.958 177.316H373.116C372.289 177.316 371.496 177.645 370.911 178.229C370.327 178.814 369.998 179.607 369.998 180.434C369.998 181.261 370.327 182.053 370.911 182.638C371.496 183.223 372.289 183.551 373.116 183.551H411.958C412.785 183.551 413.578 183.223 414.163 182.638C414.748 182.053 415.076 181.261 415.076 180.434C415.076 179.607 414.748 178.814 414.163 178.229C413.578 177.645 412.785 177.316 411.958 177.316Z" fill="#3F3D56"/>
<path d="M407.673 183.551H367.391C366.565 183.551 365.771 183.223 365.187 182.638C364.602 182.053 364.273 181.261 364.273 180.434C364.273 179.607 364.602 178.814 365.187 178.229C365.771 177.645 366.565 177.316 367.391 177.316H407.673C408.5 177.316 409.293 177.645 409.878 178.229C410.462 178.814 410.791 179.607 410.791 180.434C410.791 181.261 410.462 182.053 409.878 182.638C409.293 183.223 408.5 183.551 407.673 183.551Z" fill="#0B7ACD"/>
<path d="M352.619 199.828C354.659 199.828 356.312 198.175 356.312 196.136C356.312 194.096 354.659 192.443 352.619 192.443C350.579 192.443 348.926 194.096 348.926 196.136C348.926 198.175 350.579 199.828 352.619 199.828Z" fill="#3F3D56"/>
<path d="M411.958 193.263C412.287 193.262 412.614 193.327 412.918 193.452C413.222 193.578 413.499 193.762 413.732 193.995C413.965 194.227 414.15 194.503 414.276 194.808C414.402 195.112 414.467 195.438 414.467 195.767C414.467 196.096 414.402 196.422 414.276 196.726C414.15 197.03 413.965 197.306 413.732 197.539C413.499 197.771 413.222 197.956 412.918 198.081C412.614 198.207 412.287 198.271 411.958 198.271H373.116C372.452 198.271 371.815 198.007 371.345 197.537C370.875 197.068 370.611 196.431 370.611 195.767C370.611 195.103 370.875 194.466 371.345 193.996C371.815 193.527 372.452 193.263 373.116 193.263H411.958ZM411.958 192.649H373.116C372.289 192.649 371.496 192.978 370.911 193.562C370.327 194.147 369.998 194.94 369.998 195.767C369.998 196.594 370.327 197.386 370.911 197.971C371.496 198.556 372.289 198.884 373.116 198.884H411.958C412.785 198.884 413.578 198.556 414.163 197.971C414.748 197.386 415.076 196.594 415.076 195.767C415.076 194.94 414.748 194.147 414.163 193.562C413.578 192.978 412.785 192.649 411.958 192.649Z" fill="#3F3D56"/>
<path d="M383.749 198.884H367.391C366.981 198.885 366.575 198.805 366.197 198.648C365.818 198.492 365.473 198.262 365.183 197.973C364.893 197.683 364.663 197.339 364.506 196.961C364.349 196.582 364.269 196.177 364.269 195.767C364.269 195.357 364.349 194.951 364.506 194.573C364.663 194.194 364.893 193.85 365.183 193.561C365.473 193.271 365.818 193.042 366.197 192.885C366.575 192.729 366.981 192.649 367.391 192.649H383.749C384.575 192.651 385.367 192.98 385.951 193.564C386.535 194.149 386.863 194.941 386.863 195.767C386.863 196.593 386.535 197.385 385.951 197.969C385.367 198.554 384.575 198.883 383.749 198.884Z" fill="#0B7ACD"/>
<path d="M310.789 69.125H34.8662V210.504H310.789V69.125Z" fill="#F2F2F2"/>
<path d="M301.591 76.1504H44.0635V203.48H301.591V76.1504Z" fill="white"/>
<path d="M269.652 184.054H81.9196C81.7637 184.054 81.6143 183.992 81.5041 183.882C81.3939 183.772 81.332 183.623 81.332 183.467V93.5063C81.332 93.3505 81.3939 93.2011 81.5041 93.091C81.6143 92.9808 81.7637 92.9189 81.9196 92.9189C82.0754 92.9189 82.2248 92.9808 82.335 93.091C82.4452 93.2011 82.5071 93.3505 82.5071 93.5063V182.88H269.652C269.808 182.88 269.958 182.941 270.068 183.052C270.178 183.162 270.24 183.311 270.24 183.467C270.24 183.623 270.178 183.772 270.068 183.882C269.958 183.992 269.808 184.054 269.652 184.054Z" fill="#3F3D56"/>
<path d="M122.03 177.593H104.955C104.493 177.593 104.049 177.409 103.722 177.082C103.395 176.755 103.211 176.312 103.211 175.85V152.317C103.211 151.855 103.395 151.411 103.722 151.084C104.049 150.758 104.493 150.574 104.955 150.573H122.03C122.492 150.574 122.936 150.758 123.263 151.084C123.59 151.411 123.774 151.855 123.774 152.317V175.85C123.774 176.312 123.59 176.755 123.263 177.082C122.936 177.409 122.492 177.593 122.03 177.593Z" fill="#0B7ACD"/>
<path d="M153.169 177.593H136.094C135.631 177.592 135.188 177.408 134.861 177.081C134.534 176.755 134.35 176.311 134.35 175.849V129.995C134.35 129.533 134.534 129.09 134.861 128.763C135.188 128.436 135.631 128.252 136.094 128.252H153.169C153.631 128.252 154.074 128.436 154.401 128.763C154.728 129.09 154.912 129.533 154.913 129.995V175.849C154.912 176.311 154.728 176.755 154.401 177.081C154.074 177.408 153.631 177.592 153.169 177.593Z" fill="#0B7ACD"/>
<path d="M184.306 177.593H167.231C166.769 177.593 166.326 177.409 165.999 177.082C165.672 176.755 165.488 176.312 165.487 175.85V152.317C165.488 151.855 165.672 151.411 165.999 151.084C166.326 150.758 166.769 150.574 167.231 150.573H184.306C184.769 150.574 185.212 150.758 185.539 151.084C185.866 151.411 186.05 151.855 186.05 152.317V175.85C186.05 176.312 185.866 176.755 185.539 177.082C185.212 177.409 184.769 177.593 184.306 177.593Z" fill="#0B7ACD"/>
<path d="M215.445 177.593H198.37C197.918 177.603 197.481 177.433 197.154 177.121C196.827 176.809 196.637 176.381 196.626 175.929V121.106C196.637 120.655 196.827 120.226 197.154 119.914C197.481 119.602 197.918 119.432 198.37 119.442H215.445C215.897 119.432 216.334 119.602 216.661 119.914C216.988 120.226 217.178 120.655 217.189 121.106V175.929C217.178 176.381 216.988 176.809 216.661 177.121C216.334 177.433 215.897 177.603 215.445 177.593Z" fill="#0B7ACD"/>
<path d="M246.584 177.593H229.509C229.046 177.593 228.603 177.409 228.276 177.082C227.949 176.755 227.765 176.312 227.765 175.85V105.326C227.765 104.863 227.949 104.42 228.276 104.093C228.603 103.766 229.046 103.583 229.509 103.582H246.584C247.046 103.583 247.489 103.766 247.816 104.093C248.143 104.42 248.327 104.863 248.328 105.326V175.85C248.327 176.312 248.143 176.755 247.816 177.082C247.489 177.409 247.046 177.593 246.584 177.593Z" fill="#0B7ACD"/>
<path d="M113.493 143.524C115.44 143.524 117.018 141.946 117.018 140C117.018 138.053 115.44 136.476 113.493 136.476C111.546 136.476 109.968 138.053 109.968 140C109.968 141.946 111.546 143.524 113.493 143.524Z" fill="#3F3D56"/>
<path d="M144.631 120.616C146.577 120.616 148.156 119.038 148.156 117.092C148.156 115.145 146.577 113.567 144.631 113.567C142.684 113.567 141.105 115.145 141.105 117.092C141.105 119.038 142.684 120.616 144.631 120.616Z" fill="#3F3D56"/>
<path d="M175.769 143.524C177.716 143.524 179.294 141.946 179.294 140C179.294 138.053 177.716 136.476 175.769 136.476C173.822 136.476 172.244 138.053 172.244 140C172.244 141.946 173.822 143.524 175.769 143.524Z" fill="#3F3D56"/>
<path d="M206.908 109.456C208.855 109.456 210.433 107.878 210.433 105.932C210.433 103.985 208.855 102.407 206.908 102.407C204.961 102.407 203.383 103.985 203.383 105.932C203.383 107.878 204.961 109.456 206.908 109.456Z" fill="#3F3D56"/>
<path d="M238.047 96.5331C239.993 96.5331 241.572 94.9551 241.572 93.0087C241.572 91.0623 239.993 89.4844 238.047 89.4844C236.1 89.4844 234.521 91.0623 234.521 93.0087C234.521 94.9551 236.1 96.5331 238.047 96.5331Z" fill="#3F3D56"/>
<path d="M175.844 140.79L144.631 117.416L113.845 140.47L113.141 139.531L144.631 115.948L175.695 139.211L206.565 105.437L206.688 105.387L237.827 92.8438L238.266 93.9333L207.251 106.427L175.844 140.79Z" fill="#3F3D56"/>
<path d="M641.319 430H381.807C381.626 430 381.453 429.928 381.325 429.8C381.198 429.673 381.126 429.499 381.126 429.319C381.126 429.138 381.198 428.965 381.325 428.837C381.453 428.709 381.626 428.638 381.807 428.638H641.319C641.499 428.638 641.673 428.709 641.8 428.837C641.928 428.965 642 429.138 642 429.319C642 429.499 641.928 429.673 641.8 429.8C641.673 429.928 641.499 430 641.319 430Z" fill="#CCCCCC"/>
</g>
<defs>
<clipPath id="clip0_719_3855">
<rect width="642" height="430" fill="white"/>
</clipPath>
</defs>
</svg>
