<svg width="569" height="408" viewBox="0 0 569 408" fill="none" xmlns="http://www.w3.org/2000/svg">
<path d="M417.467 0.236328H0.178711V267.016H417.467V0.236328Z" fill="#E6E6E6"/>
<path d="M405.534 33.6963H12.1104V251.232H405.534V33.6963Z" fill="white"/>
<path d="M417.288 0H0V17.6966H417.288V0Z" fill="#0B7ACD"/>
<path d="M13.1747 12.328C14.9895 12.328 16.4607 10.8594 16.4607 9.04781C16.4607 7.23619 14.9895 5.76758 13.1747 5.76758C11.3599 5.76758 9.88867 7.23619 9.88867 9.04781C9.88867 10.8594 11.3599 12.328 13.1747 12.328Z" fill="white"/>
<path d="M25.6464 12.328C27.4612 12.328 28.9324 10.8594 28.9324 9.04781C28.9324 7.23619 27.4612 5.76758 25.6464 5.76758C23.8315 5.76758 22.3604 7.23619 22.3604 9.04781C22.3604 10.8594 23.8315 12.328 25.6464 12.328Z" fill="white"/>
<path d="M38.118 12.328C39.9329 12.328 41.4041 10.8594 41.4041 9.04781C41.4041 7.23619 39.9329 5.76758 38.118 5.76758C36.3032 5.76758 34.832 7.23619 34.832 9.04781C34.832 10.8594 36.3032 12.328 38.118 12.328Z" fill="white"/>
<path d="M137.464 51.5898H60.5166V134.925H137.464V51.5898Z" fill="#E6E6E6"/>
<path d="M247.295 51.5898H170.348V134.925H247.295V51.5898Z" fill="#E6E6E6"/>
<path d="M357.125 51.5898H280.178V134.925H357.125V51.5898Z" fill="#E6E6E6"/>
<path d="M137.464 150.008H60.5166V233.343H137.464V150.008Z" fill="#E6E6E6"/>
<path d="M247.295 150.008H170.348V233.343H247.295V150.008Z" fill="#E6E6E6"/>
<path d="M357.125 150.008H280.178V233.343H357.125V150.008Z" fill="#E6E6E6"/>
<path d="M188.946 171.426L203.005 165.877L204.64 193.62C204.64 193.62 207.582 202.106 206.602 205.37C206.602 205.37 207.255 210.918 205.62 211.245C203.986 211.571 199.407 212.224 199.083 211.897C198.76 211.57 198.757 210.591 198.757 210.591C198.757 210.591 195.487 212.876 195.16 215.487C195.16 215.487 181.428 219.73 181.101 215.813C180.774 211.896 187.967 208.632 187.967 208.632L193.525 200.147L188.946 171.426Z" fill="white"/>
<path d="M218.701 171.426L232.758 165.877L234.393 193.62C234.393 193.62 237.335 202.106 236.355 205.37C236.355 205.37 237.008 210.918 235.373 211.245C233.738 211.571 229.16 212.224 228.836 211.897C228.513 211.57 228.509 210.591 228.509 210.591C228.509 210.591 225.24 212.876 224.913 215.487C224.913 215.487 211.18 219.73 210.854 215.813C210.527 211.896 217.719 208.632 217.719 208.632L223.278 200.147L218.701 171.426Z" fill="white"/>
<path d="M220.073 64.2926C220.073 64.2926 217.08 72.6428 220.549 76.4082L217.657 86.3277C217.657 86.3277 227.931 117.096 224.996 121.394C224.996 121.394 214.037 126.864 192.116 119.44L201.02 84.9599L199.748 70.406L201.51 63.5683L205.423 63.1807C205.423 63.1807 203.075 71.9715 207.381 73.3392C211.686 74.707 215.886 63.4003 215.886 63.4003L220.073 64.2926Z" fill="#0B7ACD"/>
<path d="M81.8242 118.195L85.6021 119.738L103.633 96.0827L109.299 123.852L113.077 123.166C115.5 99.2253 117.478 74.8061 115.052 63.2565L101.057 62.6562L94.7035 82.8862L91.6123 96.5996L81.8242 118.195Z" fill="white"/>
<path d="M311.111 63.0664C311.111 63.0664 305.955 70.2213 306.207 73.1087C306.459 75.9961 309.728 123.069 309.728 123.069L317.399 123.446L315.134 89.5531L317.02 80.3895L321.673 123.069L331.104 123.321L322.679 67.9625L321.044 63.0671L311.111 63.0664Z" fill="white"/>
<path d="M340.251 178.334C338.882 176.694 336.529 175.808 334.269 175.328C334.334 175.124 327.397 173.692 327.279 173.987L324.664 171.907L316.627 176.073L312.111 173.004L310.014 173.747C310.099 173.377 303.502 174.518 303.502 174.518C302.242 174.563 300.632 174.642 298.83 174.78C292.52 175.265 292.034 191.579 292.034 191.579C294.937 190.393 298.033 189.746 301.169 189.67L302.874 209.182C311.646 208.431 320.846 209.305 330.382 211.443L334.853 196.105L345.267 192.062C345.267 192.062 343.487 182.21 340.251 178.334Z" fill="#0B7ACD"/>
<path d="M116.787 169.043C115.659 167.692 113.721 166.961 111.859 166.566C111.914 166.397 106.196 165.219 106.098 165.461L103.943 163.748L97.3225 167.18L93.6016 164.652L91.8735 165.264C91.944 164.96 86.5079 165.9 86.5079 165.9C85.4723 165.937 84.1429 166.002 82.6588 166.116C77.4596 166.515 77.0596 179.956 77.0596 179.956C79.4518 178.979 82.0024 178.446 84.5863 178.383L85.9914 217.739C93.2191 217.12 100.799 217.841 108.654 219.602L112.338 183.686L120.919 180.355C120.919 180.355 119.453 172.238 116.787 169.043Z" fill="white"/>
<path d="M485.07 179.518H521.963V159.812C521.963 154.929 520.019 150.245 516.56 146.792C513.101 143.338 508.409 141.398 503.516 141.398C498.624 141.398 493.932 143.338 490.473 146.792C487.014 150.245 485.07 154.929 485.07 159.812V179.518Z" fill="#2F2E41"/>
<path d="M468.601 398.768H460.667L456.892 368.213H468.603L468.601 398.768Z" fill="#FFB6B6"/>
<path d="M470.625 396.182H454.997C452.356 396.182 449.824 397.229 447.956 399.093C446.089 400.957 445.039 403.486 445.039 406.122V406.445H470.625V396.182Z" fill="#2F2E41"/>
<path d="M563.456 388.197L556.546 392.091L538.211 367.339L548.409 361.592L563.456 388.197Z" fill="#FFB6B6"/>
<path d="M563.944 384.951L550.336 392.618C548.036 393.914 546.346 396.069 545.638 398.609C544.93 401.149 545.262 403.866 546.56 406.162L546.719 406.443L569 393.887L563.944 384.951Z" fill="#2F2E41"/>
<path d="M512.743 261.362L513.355 264.418C513.355 264.418 515.192 266.251 514.273 267.168C513.355 268.085 513.661 272.364 513.661 272.364C514.175 280.166 524.388 324.01 526.214 332.573C526.214 332.573 540.298 341.742 551.32 359.774C562.341 377.806 562.646 382.39 562.646 382.39L550.402 387.587L519.788 350.606C519.788 350.606 511.215 345.41 508.153 340.826C505.091 336.242 486.106 288.868 486.106 288.868L475.387 338.38C475.387 338.38 476 356.412 473.244 368.026C471.55 375.356 470.526 382.823 470.183 390.337L455.793 388.809C455.793 388.809 456.711 345.41 458.242 340.825C458.242 340.825 451.812 287.951 464.672 266.863L475.035 239.283L485.185 235.383L512.743 261.362Z" fill="#0B7ACD"/>
<path d="M503.706 146.216C484.388 146.545 484.391 175.23 503.706 175.556C523.023 175.227 523.02 146.542 503.706 146.216Z" fill="#FFB8B8"/>
<path d="M488.839 160.126H492.122L493.016 157.894L492.569 160.126H510.526L509.944 155.456L514.309 160.126H518.663V157.595C518.664 155.641 518.28 153.705 517.532 151.899C516.784 150.092 515.687 148.45 514.303 147.067C512.919 145.684 511.276 144.587 509.468 143.837C507.659 143.088 505.72 142.702 503.762 142.7C501.804 142.699 499.865 143.082 498.055 143.829C496.246 144.576 494.601 145.671 493.216 147.052C491.83 148.434 490.73 150.074 489.98 151.879C489.229 153.684 488.842 155.62 488.841 157.574V157.595L488.839 160.126Z" fill="#2F2E41"/>
<path d="M483.785 184.123L520.289 184.418L512.577 262.542C512.577 262.542 469.886 260.293 469.859 247.286L473.859 235.726L483.785 184.123Z" fill="#3F3D56"/>
<path d="M521.859 270.095C521.298 269.409 520.894 268.608 520.677 267.749C520.459 266.891 520.433 265.995 520.599 265.125C520.766 264.255 521.121 263.433 521.641 262.715C522.161 261.997 522.832 261.401 523.607 260.97L522.02 247.217L530.158 244.216L532.125 263.67C532.76 265.018 532.879 266.551 532.458 267.979C532.038 269.408 531.108 270.634 529.844 271.425C528.581 272.216 527.07 272.517 525.599 272.272C524.128 272.027 522.797 271.252 521.859 270.095Z" fill="#FFB6B6"/>
<path d="M515.49 191.148L520.293 184.447C520.293 184.447 523.58 183.718 527.463 188.241C531.347 192.764 533.612 249.297 533.612 249.297L519.373 252.528L510.959 212.47L515.49 191.148Z" fill="#3F3D56"/>
<path d="M435.029 252.455L436.088 302.681L468.66 319.864L527.978 309.29L529.435 257.081L491.831 243.863L435.029 252.455Z" fill="white"/>
<path d="M468.575 320.406L435.574 302.997L434.499 252.01L491.881 243.331L492.004 243.374L529.965 256.717L528.486 309.727L468.575 320.406ZM436.601 302.365L468.745 319.321L527.47 308.853L528.904 257.445L491.781 244.396L435.558 252.9L436.601 302.365Z" fill="#CACACA"/>
<path d="M467.933 266.073L467.806 266.023L434.837 252.937L435.221 251.973L468.063 265.007L529.363 256.567L529.506 257.596L467.933 266.073Z" fill="#CACACA"/>
<path d="M468.518 265.533L467.478 265.546L468.14 319.869L469.18 319.857L468.518 265.533Z" fill="#CACACA"/>
<path d="M463.767 263.473L451.883 258.664L509.095 249.563L520.98 254.372L463.767 263.473Z" fill="#CACACA"/>
<path d="M435.235 267.025L434.823 267.979L448.607 273.903L449.018 272.949L435.235 267.025Z" fill="#CACACA"/>
<path d="M441.476 284.159L441.064 285.113L454.848 291.037L455.26 290.084L441.476 284.159Z" fill="#6C63FF"/>
<path d="M253.804 322.233L254.863 372.459L287.435 389.642L346.752 379.068L348.209 326.859L310.606 313.642L253.804 322.233Z" fill="white"/>
<path d="M287.349 390.184L254.349 372.776L253.273 321.788L310.656 313.109L310.778 313.152L348.739 326.495L347.261 379.505L287.349 390.184ZM255.376 372.143L287.519 389.099L346.244 378.631L347.678 327.224L310.555 314.175L254.333 322.678L255.376 372.143Z" fill="#CACACA"/>
<path d="M286.708 335.851L286.58 335.801L253.611 322.716L253.995 321.751L286.837 334.785L348.138 326.345L348.28 327.374L286.708 335.851Z" fill="#CACACA"/>
<path d="M287.292 335.312L286.252 335.324L286.914 389.648L287.954 389.635L287.292 335.312Z" fill="#CACACA"/>
<path d="M279.662 332.069L270.656 328.442L327.869 319.342L336.874 322.969L279.662 332.069Z" fill="#CACACA"/>
<path d="M254.009 336.804L253.598 337.758L267.381 343.682L267.793 342.728L254.009 336.804Z" fill="#CACACA"/>
<path d="M260.25 353.937L259.839 354.891L273.623 360.815L274.034 359.861L260.25 353.937Z" fill="#6C63FF"/>
<path d="M310.39 329.12L311.619 387.424L349.43 407.37L418.289 395.096L419.979 334.49L376.328 319.146L310.39 329.12Z" fill="#0B7ACD"/>
<path d="M349.331 408L311.023 387.791L309.774 328.603L376.386 318.528L376.528 318.578L420.595 334.067L418.878 395.603L349.331 408ZM312.215 387.057L349.528 406.74L417.698 394.589L419.363 334.913L376.269 319.765L311.004 329.636L312.215 387.057Z" fill="#3F3D56"/>
<path d="M348.586 344.928L348.438 344.87L310.166 329.68L310.612 328.56L348.736 343.691L419.896 333.893L420.061 335.087L348.586 344.928Z" fill="#3F3D56"/>
<path d="M349.265 344.302L348.058 344.316L348.826 407.377L350.034 407.362L349.265 344.302Z" fill="#3F3D56"/>
<path d="M341.021 340.566L329.954 336.328L396.368 325.764L407.435 330.001L341.021 340.566Z" fill="#3F3D56"/>
<path d="M310.628 346.033L310.15 347.141L326.151 354.018L326.629 352.91L310.628 346.033Z" fill="#3F3D56"/>
<path d="M317.874 365.924L317.396 367.031L333.397 373.908L333.875 372.801L317.874 365.924Z" fill="white"/>
<path d="M453.497 260.76C454.3 260.384 455.01 259.836 455.578 259.156C456.147 258.476 456.559 257.68 456.785 256.823C457.012 255.967 457.048 255.072 456.89 254.2C456.733 253.329 456.386 252.502 455.874 251.779L463.267 240.065L457.232 233.845L447.024 250.533C445.865 251.472 445.09 252.804 444.848 254.275C444.606 255.746 444.913 257.255 445.711 258.516C446.508 259.776 447.741 260.701 449.176 261.115C450.611 261.528 452.148 261.402 453.497 260.76V260.76Z" fill="#FFB6B6"/>
<path d="M489.395 187.202L484.099 183.718C484.099 183.718 480.011 184.633 475.665 192.979C471.318 201.325 453.788 238.64 453.788 238.64L460.994 245.941L480.217 216.667L489.395 187.202Z" fill="#3F3D56"/>
</svg>
