<svg width="104" height="31" viewBox="0 0 104 31" fill="none" xmlns="http://www.w3.org/2000/svg">
<path fill-rule="evenodd" clip-rule="evenodd" d="M40.6131 7.26376H40.6509C40.6509 7.53412 40.7275 7.85137 40.77 8.11287L42.2704 17.6461C42.3657 18.2319 42.4697 18.8164 42.5444 19.3851L42.747 20.6924C42.7627 20.8026 42.8089 20.9955 42.8119 21.131H38.4142L38.9721 17.7017C39.0719 17.0894 40.6131 7.5955 40.6131 7.26376ZM32.4243 30.9584H36.9357L37.7586 25.5478C37.8451 25.005 37.5994 25.093 38.8312 25.093H43.4563L43.906 28.0117C43.9996 28.5815 44.2595 30.4891 44.3662 30.9584H48.8776L48.5036 29.0499C48.3982 28.3985 48.26 27.7832 48.1412 27.1294C48.0792 26.788 48.0192 26.5022 47.9677 26.1806C47.8215 25.2669 47.5763 24.178 47.4151 23.251C47.0881 21.3719 46.6265 19.2628 46.3325 17.446C46.0403 15.6401 45.5354 13.4534 45.2432 11.6479C45.0436 10.4139 44.7128 8.98746 44.5178 7.76874C44.3752 6.87727 43.0772 0.30289 43.0772 0H38.3763C38.2317 0 38.2451 0.220217 38.2151 0.378635C38.1892 0.515766 38.1473 0.727082 38.1203 0.864121L37.5698 3.79603C37.3668 5.01259 37.0677 6.40418 36.838 7.66863L35.3656 15.4437C34.8543 18.0356 34.4075 20.6004 33.8999 23.1867C33.648 24.4705 33.4248 25.75 33.1668 27.0579L32.6107 29.9841C32.5501 30.2942 32.4946 30.6492 32.4243 30.9584Z" fill="#212121"/>
<path fill-rule="evenodd" clip-rule="evenodd" d="M9.60199 30.2984H8.27508H7.63061H6.30375H5.5455H4.21864H3.46044H2.13358H1.52699H0.200125H0.0105409V30.9588C3.19505 30.9588 6.37956 30.9588 9.56406 30.9588C11.2875 30.9588 13.8833 31.3906 14.4693 29.459C14.6949 28.7152 14.6062 27.2997 14.6062 26.3364C14.6062 25.2487 14.6062 24.1611 14.6062 23.0735C14.6062 22.0757 14.6852 20.6785 14.5005 19.8801C14.3273 19.1318 13.9803 18.6039 13.4599 18.1107L8.3225 13.1587C8.25354 13.0879 8.20425 13.0293 8.13265 12.9647L5.25123 10.207C5.17305 10.1329 5.11972 10.0713 5.0432 9.99285C4.44463 9.37932 4.55984 9.74928 4.55984 8.85672V3.92354H10.0569V9.75011H14.6062C14.6062 7.41948 14.6056 5.08886 14.6062 2.75823C14.6064 2.15323 14.5577 1.67389 14.3671 1.2553C14.189 0.86432 13.8931 0.569047 13.5203 0.374935C12.6778 -0.063847 11.6626 0.0391494 10.436 0.0391494C9.38563 0.0391494 2.64345 -0.0209963 1.95966 0.0940669C0.0537058 0.414803 0.0105409 1.80708 0.0105409 3.34089C0.0105409 4.20804 -0.0333397 9.54907 0.0579597 10.2842C0.234737 11.7072 0.975744 12.1523 1.72606 12.9255C1.86402 13.0678 2.02105 13.25 2.16582 13.3684L5.00559 16.1299C5.09855 16.2137 5.13956 16.2284 5.2335 16.3236C5.38811 16.4803 5.5134 16.6151 5.66801 16.7719L6.55311 17.6129C6.70343 17.7319 6.84102 17.8943 6.97665 18.0335L9.61162 20.5776C9.68989 20.6588 9.74218 20.7098 9.81965 20.7917C9.91963 20.8975 9.93531 20.9624 10.0948 20.9759V30.2984H9.60199Z" fill="#212121"/>
<path fill-rule="evenodd" clip-rule="evenodd" d="M67.3401 30.9567H70.0697V2.48427H76.9315V13.8267H72.1927C72.0804 13.8267 71.7778 14.32 71.7901 14.4325L73.1641 18.5025C73.2284 18.7019 73.2729 18.8609 73.346 19.0542L74.4531 22.3092C74.9266 23.7767 75.4359 25.1798 75.9123 26.6406L77.3865 30.9567H80.2298L75.036 16.1573C76.2966 16.1573 77.812 16.4211 78.866 15.6534C79.2965 15.3398 79.6232 14.7355 79.6232 13.982V2.25121C79.6232 1.62859 79.3771 1.04359 79.0646 0.726022C78.8824 0.540902 78.7368 0.388126 78.4989 0.256776C78.3106 0.152861 77.9281 0.0371094 77.6518 0.0371094H67.3401V30.9567Z" fill="#212121"/>
<path fill-rule="evenodd" clip-rule="evenodd" d="M16.8052 4.11571H21.8094V30.9567H26.3208V4.11571H31.2871V0.0371094H16.8052V4.11571Z" fill="#212121"/>
<path fill-rule="evenodd" clip-rule="evenodd" d="M50.0146 4.11571H55.0189V30.9567H59.5302V4.11571H64.4965V0.0371094H50.0146V4.11571Z" fill="#212121"/>
<path fill-rule="evenodd" clip-rule="evenodd" d="M95.8491 15.1085C95.8491 15.2509 95.2897 16.8105 95.2002 17.085L94.3561 19.5219C94.2978 19.7029 94.2587 19.842 94.1921 20.0142L93.8541 20.9885C93.4949 22.1037 93.0339 23.3165 92.669 24.4355L91.1626 28.8351C91.101 29.0261 91.0502 29.138 90.9914 29.3201C90.9388 29.4829 90.8884 29.6346 90.823 29.8078C90.7571 29.9819 90.7156 30.144 90.6601 30.3014C90.5517 30.6087 90.5037 30.5967 90.5037 30.9567H93.1953L94.9441 25.4459C95.0813 25.0238 97.1584 18.5487 97.1759 18.3325C97.2738 18.406 97.2874 18.5362 97.3325 18.6771C97.374 18.8071 97.4163 18.9358 97.4649 19.0852C98.5692 22.4756 99.6177 25.9767 100.725 29.3788L101.232 30.9567H104C103.973 30.6303 102.879 27.4525 102.754 27.0674C101.924 24.5159 100.999 21.9162 100.176 19.3764C99.9692 18.7391 99.7349 18.0993 99.5312 17.473C99.3378 16.8778 98.8491 15.5495 98.7219 15.0746C98.6666 14.8682 98.9064 14.3555 98.9814 14.1228C99.9401 11.1517 101.094 8.00841 102.071 5.01364L102.403 4.03308C102.629 3.39179 102.844 2.76298 103.067 2.11086C103.231 1.62955 103.697 0.399641 103.697 0.0371094H101.081C100.941 0.0371094 100.866 0.444602 100.782 0.702439C100.701 0.953441 100.627 1.17939 100.545 1.4303C100.468 1.66616 100.398 1.92272 100.318 2.16858C100.24 2.40646 100.165 2.63938 100.081 2.8969L97.3704 11.3457C97.3254 11.4865 97.3118 11.6168 97.2139 11.6902C97.2101 11.5156 95.9964 7.65477 95.8918 7.33482L94.0972 1.52142C94.0317 1.27863 93.942 1.05185 93.8697 0.78337C93.8171 0.588386 93.6665 0.237002 93.6502 0.0371094H90.8069L91.4087 1.94543C92.0552 3.77758 92.6692 5.77802 93.3043 7.57775L95.209 13.2007C95.26 13.3571 95.3131 13.4777 95.3707 13.6565L95.8491 15.1085Z" fill="#212121"/>
<path fill-rule="evenodd" clip-rule="evenodd" d="M84.3621 30.9567H87.0916V0.0371094H84.3621V30.9567Z" fill="#212121"/>
<path fill-rule="evenodd" clip-rule="evenodd" d="M8.2749 30.2981H9.60181V20.9756H8.2749V30.2981Z" fill="#0B7ACD"/>
<path fill-rule="evenodd" clip-rule="evenodd" d="M6.30371 30.2977H7.63057V23.1504H6.30371V30.2977Z" fill="#0B7ACD"/>
<path fill-rule="evenodd" clip-rule="evenodd" d="M4.21875 30.2977H5.54561V25.248H4.21875V30.2977Z" fill="#0B7ACD"/>
<path fill-rule="evenodd" clip-rule="evenodd" d="M2.13379 30.2984H3.46065V27.9678H2.13379V30.2984Z" fill="#0B7ACD"/>
<path fill-rule="evenodd" clip-rule="evenodd" d="M0.200195 30.2983H1.52706V29.7158H0.200195V30.2983Z" fill="#0B7ACD"/>
</svg>
