<svg width="379" height="220" viewBox="0 0 379 220" fill="none" xmlns="http://www.w3.org/2000/svg">
<rect width="379" height="220" fill="white"/>
<circle cx="4" cy="4" r="4" fill="#F9CDB1"/>
<circle cx="216" cy="4" r="4" fill="#F9CDB1"/>
<circle cx="110" cy="4" r="4" fill="#F9CDB1"/>
<circle cx="322" cy="4" r="4" fill="#F9CDB1"/>
<circle cx="57" cy="4" r="4" fill="#F9CDB1"/>
<circle cx="269" cy="4" r="4" fill="#F9CDB1"/>
<circle cx="163" cy="4" r="4" fill="#F9CDB1"/>
<circle cx="375" cy="4" r="4" fill="#F9CDB1"/>
<circle cx="4" cy="163" r="4" fill="#F9CDB1"/>
<circle cx="216" cy="163" r="4" fill="#F9CDB1"/>
<circle cx="110" cy="163" r="4" fill="#F9CDB1"/>
<circle cx="322" cy="163" r="4" fill="#F9CDB1"/>
<circle cx="57" cy="163" r="4" fill="#F9CDB1"/>
<circle cx="269" cy="163" r="4" fill="#F9CDB1"/>
<circle cx="163" cy="163" r="4" fill="#F9CDB1"/>
<circle cx="375" cy="163" r="4" fill="#F9CDB1"/>
<circle cx="4" cy="57" r="4" fill="#F9CDB1"/>
<circle cx="216" cy="57" r="4" fill="#F9CDB1"/>
<circle cx="110" cy="57" r="4" fill="#F9CDB1"/>
<circle cx="322" cy="57" r="4" fill="#F9CDB1"/>
<circle cx="57" cy="57" r="4" fill="#F9CDB1"/>
<circle cx="269" cy="57" r="4" fill="#F9CDB1"/>
<circle cx="163" cy="57" r="4" fill="#F9CDB1"/>
<circle cx="375" cy="57" r="4" fill="#F9CDB1"/>
<circle cx="4" cy="216" r="4" fill="#F9CDB1"/>
<circle cx="216" cy="216" r="4" fill="#F9CDB1"/>
<circle cx="110" cy="216" r="4" fill="#F9CDB1"/>
<circle cx="322" cy="216" r="4" fill="#F9CDB1"/>
<circle cx="57" cy="216" r="4" fill="#F9CDB1"/>
<circle cx="269" cy="216" r="4" fill="#F9CDB1"/>
<circle cx="163" cy="216" r="4" fill="#F9CDB1"/>
<circle cx="375" cy="216" r="4" fill="#F9CDB1"/>
<circle cx="4" cy="110" r="4" fill="#F9CDB1"/>
<circle cx="216" cy="110" r="4" fill="#F9CDB1"/>
<circle cx="110" cy="110" r="4" fill="#F9CDB1"/>
<circle cx="322" cy="110" r="4" fill="#F9CDB1"/>
<circle cx="57" cy="110" r="4" fill="#F9CDB1"/>
<circle cx="269" cy="110" r="4" fill="#F9CDB1"/>
<circle cx="163" cy="110" r="4" fill="#F9CDB1"/>
<circle cx="375" cy="110" r="4" fill="#F9CDB1"/>
</svg>
