<svg width="80" height="80" viewBox="0 0 80 80" fill="none" xmlns="http://www.w3.org/2000/svg">
<path d="M0 14C0 6.26801 6.26801 0 14 0H66C73.732 0 80 6.26801 80 14V66C80 73.732 73.732 80 66 80H0V14Z" fill="#0B7ACD" fill-opacity="0.2"/>
<path d="M20.2812 34.7439C40.5542 34.7439 51.3791 29.7067 56.8666 25.5341V27.5334C56.8666 28.214 57.5394 28.7649 58.3683 28.7649C59.1973 28.7649 59.8701 28.214 59.8701 27.5334V22.428C59.8701 22.4059 59.8641 22.3862 59.8621 22.364C59.8591 22.3213 59.8541 22.2794 59.8461 22.2384C59.8381 22.199 59.8281 22.1595 59.8171 22.1218C59.805 22.0832 59.792 22.0462 59.774 22.0085C59.757 21.9707 59.741 21.9338 59.7179 21.8984C59.6969 21.8631 59.6739 21.8287 59.6489 21.7942C59.6238 21.7597 59.5968 21.7268 59.5688 21.6948C59.5397 21.6628 59.5087 21.6332 59.4757 21.6037C59.4416 21.5717 59.4046 21.5429 59.3655 21.5142C59.3465 21.5002 59.3325 21.483 59.3105 21.4699C59.2924 21.4592 59.2754 21.4526 59.2584 21.4419C59.2164 21.4165 59.1713 21.3927 59.1262 21.3713C59.0852 21.3516 59.0441 21.3327 59.0031 21.3171C58.958 21.2999 58.911 21.2859 58.8639 21.272C58.8169 21.2588 58.7708 21.2457 58.7228 21.2367C58.6767 21.2276 58.6307 21.2211 58.5816 21.2161C58.5325 21.2079 58.4805 21.203 58.4294 21.2022C58.4084 21.2014 58.3884 21.1973 58.3663 21.1973H51.5453C50.7163 21.1973 50.0435 21.7482 50.0435 22.4289C50.0435 23.1095 50.7163 23.6604 51.5453 23.6604H54.9193C49.8903 27.5276 39.7483 32.2815 20.2772 32.2815C19.4472 32.2815 18.7754 32.8325 18.7754 33.5131C18.7754 34.1938 19.4502 34.7439 20.2812 34.7439Z" fill="#0B7ACD"/>
<path d="M29.9165 41.1826H20.2811C19.4511 41.1826 18.7793 41.7344 18.7793 42.4142V54.0519C18.7793 54.7317 19.4511 55.2835 20.2811 55.2835H29.9165C30.7455 55.2835 31.4183 54.7317 31.4183 54.0519V42.4142C31.4183 41.7344 30.7455 41.1826 29.9165 41.1826Z" fill="#0B7ACD"/>
<path d="M60.5391 29.5479H59.3327C59.1545 29.5479 58.9883 29.5774 58.8301 29.6234C58.8241 29.625 58.8181 29.6259 58.812 29.6275C58.6058 29.6899 58.4166 29.7851 58.2654 29.9116C56.0758 31.5775 53.3796 33.0612 50.2409 34.3182C50.2269 34.3239 50.2168 34.3322 50.2028 34.3379C50.1357 34.3675 50.0687 34.3995 50.0086 34.4372C49.9856 34.452 49.9625 34.4684 49.9405 34.484C49.8895 34.5185 49.8404 34.5547 49.7963 34.5941C49.7743 34.6154 49.7513 34.6384 49.7313 34.6606C49.6922 34.7 49.6572 34.7394 49.6261 34.7821C49.6061 34.8075 49.5901 34.8338 49.5731 34.8617C49.5461 34.9044 49.52 34.9471 49.5 34.9931C49.485 35.0251 49.476 35.0571 49.464 35.0892C49.4479 35.1319 49.4369 35.1737 49.4269 35.2181C49.4179 35.2591 49.4149 35.301 49.4109 35.3421C49.4089 35.3691 49.4009 35.3946 49.4009 35.4225V54.0523C49.4009 54.7321 50.0737 55.2839 50.9027 55.2839H60.5391C61.3681 55.2839 62.0409 54.7321 62.0409 54.0523V30.7794C62.0409 30.0988 61.3691 29.5479 60.5391 29.5479Z" fill="#0B7ACD"/>
<path d="M46.7055 37.134C46.6965 37.0872 46.6835 37.042 46.6674 36.9969C46.6604 36.9763 46.6584 36.9558 46.6494 36.9353C46.6434 36.923 46.6344 36.9131 46.6294 36.9008C46.6084 36.854 46.5813 36.8105 46.5553 36.7662C46.5353 36.7366 46.5183 36.7079 46.4972 36.6799C46.4672 36.6414 46.4342 36.6052 46.3981 36.5691C46.3731 36.542 46.3471 36.5149 46.318 36.4895C46.281 36.4566 46.2399 36.4279 46.1979 36.3983C46.1679 36.377 46.1358 36.354 46.1028 36.3351C46.0577 36.308 46.0077 36.2842 45.9576 36.262C45.9236 36.2464 45.8915 36.23 45.8555 36.2169C45.8024 36.1972 45.7514 36.1824 45.6963 36.1668C45.6583 36.1561 45.6192 36.1454 45.5802 36.1372C45.5271 36.1265 45.476 36.1208 45.423 36.1151C45.3759 36.1101 45.3299 36.1052 45.2818 36.1036C45.2608 36.1027 45.2438 36.0986 45.2237 36.0986C45.1887 36.0986 45.1587 36.1052 45.1236 36.1068C45.0776 36.1093 45.0315 36.1126 44.9855 36.1183C44.9254 36.1257 44.8693 36.1372 44.8122 36.1512C44.7882 36.1569 44.7632 36.1586 44.7392 36.1651C41.8497 36.9698 38.684 37.6201 35.329 38.0979C35.324 38.0987 35.32 38.1004 35.316 38.1012C35.2409 38.1127 35.1698 38.1307 35.0987 38.1513C35.0747 38.1578 35.0487 38.1619 35.0256 38.1693C34.9616 38.1907 34.9005 38.2186 34.8404 38.2473C34.8154 38.2597 34.7874 38.2679 34.7643 38.281C34.7093 38.3097 34.6612 38.345 34.6121 38.3804C34.5891 38.3976 34.5611 38.4124 34.5391 38.4304C34.494 38.4666 34.455 38.5076 34.4159 38.5495C34.3949 38.5692 34.3719 38.5897 34.3528 38.6119C34.3188 38.6521 34.2918 38.6965 34.2637 38.7383C34.2457 38.7654 34.2257 38.7901 34.2107 38.8188C34.1896 38.8574 34.1766 38.8993 34.1606 38.9387C34.1456 38.9756 34.1296 39.0109 34.1196 39.0487C34.1096 39.0832 34.1075 39.1193 34.1015 39.1554C34.0945 39.2022 34.0855 39.2474 34.0845 39.295C34.0845 39.3016 34.0825 39.3065 34.0825 39.3123V54.0535C34.0825 54.7333 34.7543 55.2851 35.5843 55.2851H45.2207C46.0497 55.2851 46.7225 54.7333 46.7225 54.0535V37.3302C46.7225 37.3048 46.7135 37.281 46.7125 37.2555C46.7185 37.2153 46.7145 37.175 46.7055 37.134Z" fill="#0B7ACD"/>
</svg>
