<svg width="80" height="80" viewBox="0 0 80 80" fill="none" xmlns="http://www.w3.org/2000/svg">
<path d="M0 14C0 6.26801 6.26801 0 14 0H66C73.732 0 80 6.26801 80 14V66C80 73.732 73.732 80 66 80H0V14Z" fill="#0B7ACD" fill-opacity="0.2"/>
<path d="M40 19.5918C28.7074 19.5918 19.5918 28.7074 19.5918 40C19.5918 51.2925 28.7074 60.4081 40 60.4081C51.2925 60.4081 60.4081 51.2925 60.4081 40C60.4081 28.7074 51.2925 19.5918 40 19.5918ZM48.2539 48.39C47.8458 48.7981 47.3469 48.9796 46.8027 48.9796C46.2585 48.9796 45.7596 48.7981 45.3514 48.39L37.8231 40.8616V28.6167C37.8231 27.483 38.7301 26.5759 39.8639 26.5759C40.9977 26.5759 41.9047 27.483 41.9047 28.6167V39.1836L48.2539 45.5328C49.0249 46.3038 49.0249 47.619 48.2539 48.39Z" fill="#0B7ACD"/>
</svg>
